<?xml version="1.0" encoding="utf-8"?>
<!-- Generator: Adobe Illustrator 22.1.0, SVG Export Plug-In . SVG Version: 6.00 Build 0)  -->
<svg version="1.1" id="Layer_1" xmlns="http://www.w3.org/2000/svg" xmlns:xlink="http://www.w3.org/1999/xlink" x="0px" y="0px"
	 viewBox="0 0 601.3 323.2" style="enable-background:new 0 0 601.3 323.2;" xml:space="preserve">
<style type="text/css">
	.st0{fill:#FFFFFF;}
</style>
<g>
	<g>
		<path class="st0" d="M253.9,126.6c1.5-1.4,2.8-2.6,4.3-3.8c1.6-1.2,3.2-2.4,4.9-3.4c3.4-1.9,7.1-2.4,10.9-1.7
			c4.2,0.9,7.2,3.3,9.2,7.1c1.5,2.9,2.1,6,2.3,9.2c0.1,1.3,0.1,2.5,0.1,3.8c0,10.9,0,21.8,0,32.7c0,0.3,0,0.6,0,0.9
			c0,0.4-0.1,0.6-0.5,0.5c-0.2,0-0.4,0-0.6,0c-4.4,0-8.8,0-13.2,0c-1.4,0-1.2,0-1.2-1.2c0-8.7,0-17.3,0-26c0-2.5,0.1-4.9-0.2-7.4
			c-0.1-0.7-0.2-1.4-0.4-2c-0.7-2.7-2.3-4-5.1-4.2c-2.3-0.2-4.4,0.4-6.4,1.6c-2.2,1.4-2.2,1.4-2.2,3.9c0,11.3,0,22.6,0,33.9
			c0,1.6,0.2,1.4-1.3,1.4c-4.3,0-8.7,0-13,0c-1.5,0-1.3,0.2-1.3-1.3c0-8.9,0-17.8,0-26.8c0-2.5,0-5-0.5-7.5
			c-0.1-0.4-0.2-0.8-0.3-1.1c-0.6-2.3-2-3.7-4.4-4c-2-0.3-3.9-0.2-5.7,0.8c-0.9,0.5-1.8,1.1-2.7,1.6c-0.7,0.4-0.9,0.9-0.9,1.7
			c0,10.1,0,20.2,0,30.3c0,1.8,0,3.6,0,5.5c0,0.9,0,0.9-0.9,0.9c-4.6,0-9.3,0-13.9,0c-0.6,0-0.9-0.1-0.8-0.8c0-0.2,0-0.4,0-0.6
			c0-16.8,0-33.5,0-50.3c0-1.7-0.2-1.4,1.4-1.5c3.3,0,6.7,0,10,0c1.4,0,2.7-0.2,4.1,0.1c0.2,1.3,0.1,2.7,0.1,4c0,0.5,0,0.9,0,1.4
			c0.6-0.2,0.8-0.5,1.2-0.8c1.9-1.6,3.8-3,5.9-4.2c3.9-2.2,8-2.6,12.3-1.4c3.8,1.1,6.4,3.6,8.2,7.1
			C253.4,125.6,253.6,126,253.9,126.6z"/>
		<path class="st0" d="M135.4,166.7c-0.8,0.7-1.6,1.4-2.4,2.1c-2.6,2.2-5.6,3.8-9,4.3c-2.4,0.4-4.8,0.5-7.2,0
			c-6.4-1.4-10.2-5.6-11.8-11.7c-0.9-3.6-0.7-7.2,0.2-10.8c1.1-3.9,3.6-6.8,7.1-8.8c3.2-1.8,6.8-2.8,10.4-3.4
			c4.1-0.6,8.1-1.1,12.3-1.3c0.7,0,0.9-0.2,0.9-0.9c-0.3-3-1.4-5.1-4.4-6.1c-3.9-1.3-7.8-1.4-11.8-0.6c-3,0.6-5.9,1.7-8.7,2.9
			c-0.4,0.2-0.8,0.4-1.3,0.4c-0.9,0-1,0-1-0.9c0-3.3,0-6.7,0-10c0-0.4,0-0.8,0-1.2c-0.1-0.6,0.2-0.9,0.8-1.1
			c2.9-0.7,5.8-1.3,8.8-1.8c5.1-0.8,10.2-0.8,15.3-0.2c2.8,0.3,5.5,0.9,8.2,2c5.8,2.4,8.8,7,9.5,13.1c0.2,1.4,0.2,2.8,0.2,4.3
			c0,11.2,0,22.3,0,33.5c0,1.6,0.2,1.4-1.5,1.4c-4.3,0-8.7,0-13,0c-1.3,0-1.2,0.1-1.2-1.2c0-1.3,0-2.7,0-4
			C135.6,166.8,135.5,166.8,135.4,166.7z M135.7,152.8c0-1.6,0-3.3,0-4.9c0-0.5-0.2-0.7-0.7-0.6c-1.2,0.2-2.3,0.3-3.5,0.4
			c-2.5,0.3-4.9,0.6-7.2,1.6c-2.5,1-3.9,2.9-4,5.7c0,0.8,0,1.6,0.1,2.5c0.3,2.4,1.8,3.8,4.1,4.3c4,0.9,7.5,0,10.6-2.8
			c0.5-0.4,0.7-0.8,0.6-1.5C135.7,155.8,135.7,154.3,135.7,152.8z"/>
		<path class="st0" d="M201.8,128.8c0,2.1,0,4.2,0,6.4c0,0.5-0.1,0.7-0.7,0.8c-0.9,0-1.5-0.2-2.2-0.8c-2.6-2.5-5.6-4.5-9.2-5.3
			c-2.3-0.5-4.5-0.6-6.8-0.1c-2.5,0.6-4.5,1.9-6.1,3.9c-1.9,2.4-2.8,5.2-3.2,8.2c-0.4,3.4-0.4,6.8,0.5,10.2
			c1.6,6.6,6.7,9.8,13.2,9.4c4.6-0.3,8.5-2.1,11.7-5.5c0.6-0.7,1.2-1,2.1-0.9c0.5,0,0.8,0.2,0.8,0.7c0,0.7,0,1.4,0,2.1
			c0,3.5,0,7,0,10.5c0,0.6-0.1,0.9-0.7,1.2c-3.3,1.6-6.8,2.9-10.4,3.4c-3.3,0.5-6.6,0.4-9.8,0.1c-3.2-0.3-6.2-1-9.1-2.3
			c-6.9-3-11.2-8.3-13.2-15.4c-1.9-6.8-1.9-13.7,0.2-20.4c2.8-9.2,9.2-14.7,18.6-16.8c8.1-1.8,15.9-0.8,23.4,2.8
			c0.9,0.4,1.2,0.9,1.1,1.9C201.8,124.9,201.8,126.9,201.8,128.8z"/>
		<path class="st0" d="M486,176c3.4-4.3,8.3-3.1,9.7,0.2c0.5,0,0.6-0.5,0.8-0.7c1-1.2,2.3-2.1,4-2.2c3.2-0.3,5.6,1.7,6,5.1
			c0.2,1.2,0.2,2.3,0.2,3.5c0,2.4,0,4.8,0,7.3c0,0.9,0,0.9-0.9,1c-2.1,0.1-2.1,0.1-2.1-2c0-2.5,0-4.9,0-7.4c0-1-0.1-1.9-0.4-2.8
			c-0.9-2.1-3.3-2.8-5.1-1.4c-1.2,0.9-1.7,2.3-1.7,3.8c0,2.8,0,5.6,0,8.4c0,0.3,0,0.5,0,0.8c0,0.4-0.1,0.6-0.6,0.6
			c-2.3,0.2-2.3,0.2-2.3-2.2c0-2.5,0-5,0-7.5c0-0.9-0.1-1.7-0.4-2.5c-0.9-2.1-3.2-2.8-5-1.4c-1.2,0.9-1.8,2.2-1.8,3.7
			c0,2.9,0,5.7,0,8.6c0,0.3,0,0.6,0,0.9c0,0.3-0.2,0.5-0.5,0.5c0,0-0.1,0-0.1,0c-2.4,0.2-2.3,0.2-2.4-2.1c0-4.5,0.1-8.9-0.1-13.4
			c0-0.9,0-0.9,0.9-0.9c1.6,0,1.6,0,1.8,1.6C485.9,175.4,486,175.7,486,176z"/>
		<path class="st0" d="M598.2,187.7c-0.3,0-0.4,0.2-0.5,0.3c-2.2,2.8-7.8,3-10.4-1.1c-2-3.2-1.7-8.1,0.7-11c1.8-2.2,4.7-3.1,7.3-2.3
			c1.1,0.3,1.8,0.8,3.1,2.2c0.3-0.5,0.2-1,0.2-1.5c0-0.4,0.2-0.6,0.7-0.6c2-0.1,2-0.2,1.9,1.9c-0.2,4,0,8-0.1,11.9
			c0,1.3,0,2.6-0.3,3.9c-0.6,2.8-2.2,4.6-5,5.3c-2.5,0.7-4.9,0.5-7.3-0.4c-1.2-0.4-1.2-0.5-0.8-1.7c0.1-0.4,0.2-0.7,0.4-1.2
			c1.3,0.6,2.5,1.1,3.9,1.2c0.3,0,0.6,0.1,0.9,0.1c3.2,0,5.1-1.8,5.3-5C598.3,189.1,598.2,188.4,598.2,187.7z M598.2,181.6
			C598.2,181.6,598.2,181.6,598.2,181.6c0-0.5,0-1,0-1.4c-0.1-2.3-1.4-4-3.5-4.4c-2-0.4-4,0.6-4.9,2.5c-1.1,2.2-1.1,4.5-0.1,6.8
			c0.9,2,2.8,2.9,4.9,2.5c1.9-0.3,3.4-2,3.6-4.1C598.3,182.9,598.2,182.2,598.2,181.6z"/>
		<path class="st0" d="M544.8,136.1c3.5-3.6,7-3.4,9.2,0.3c0.4,0,0.5-0.3,0.6-0.5c0.7-0.9,1.6-1.7,2.8-2c3.4-1,6.3,0.9,6.8,4.6
			c0.2,1.2,0.2,2.5,0.2,3.8c0,2.1,0,4.2,0,6.4c0,0.9,0,0.9-0.9,1c-1.9,0.1-1.9,0.1-1.9-1.9c0-2.2,0-4.5,0-6.7c0-0.9-0.1-1.8-0.4-2.7
			c-0.8-2.4-3.6-3-5.4-1.2c-0.9,0.9-1.2,2.1-1.2,3.3c0,2.6,0,5.1,0,7.7c0,0.3,0,0.5,0,0.8c0,0.5-0.1,0.7-0.6,0.7
			c-2.1,0.1-2.1,0.1-2.1-2c0-2.2,0-4.5,0-6.7c0-1-0.1-1.9-0.4-2.8c-0.8-2.1-3.1-2.7-4.9-1.3c-1.1,0.9-1.6,2.1-1.6,3.5
			c0,2.6,0,5.1,0,7.7c0,0.3,0,0.5,0,0.8c0.1,0.6-0.1,0.8-0.8,0.9c-2.1,0.1-2.1,0.1-2.1-2c0-4.2,0-8.5-0.1-12.7
			c0-0.6,0.1-0.9,0.7-0.9c1.7,0,1.7-0.1,1.8,1.6C544.7,135.7,544.7,135.9,544.8,136.1z"/>
		<path class="st0" d="M514.3,176c0.3,0,0.4-0.3,0.6-0.5c3.2-3.5,8.8-2.9,11,1.4c1.7,3.3,1.6,6.7-0.2,10c-1.5,2.9-4.9,4.1-8,3.3
			c-1.2-0.3-2.2-1-3-1.9c-0.4,0.2-0.3,0.6-0.3,0.8c0,2.2,0,4.5,0,6.7c0,0.7-0.2,1-0.9,0.9c-0.7-0.1-1.4,0.1-2-0.1
			c-0.2-0.3-0.1-0.7-0.1-1c0-7,0.1-14.1-0.1-21.1c0-0.6,0.1-0.8,0.8-0.8c1.8,0,1.8-0.1,2,1.8C514.2,175.6,514.1,175.9,514.3,176z
			 M514.5,182c0,0.6,0,1.2,0,1.8c0.2,2.2,1.7,3.8,3.8,4.2c2,0.4,4-0.7,4.9-2.6c1-2.2,1.1-4.5,0.2-6.8c-0.8-1.9-2.5-3-4.3-2.9
			c-1.9,0.1-3.5,1.4-4.2,3.3C514.5,180,514.5,181,514.5,182z"/>
		<path class="st0" d="M571.8,126.8c0,3,0,6.1,0,9.2c0.4-0.1,0.5-0.4,0.7-0.6c2.7-2.8,7.3-2.5,9.6,0.6c0.9,1.3,1.4,2.7,1.5,4.2
			c0.2,2,0,4-0.9,5.8c-1.5,2.9-4.4,4.3-7.6,3.6c-1.5-0.3-2.6-1.2-3.5-2.5c-0.3,0.6-0.3,1.2-0.3,1.7c0,0.4-0.2,0.6-0.6,0.6
			c-0.6,0-1.2,0-1.8,0c0-1.5,0-3,0-4.4c0-5.7,0-11.5,0-17.2c0-1.1,0-1.1,1.1-1.1C570.6,126.7,571.1,126.6,571.8,126.8z M580.8,141.6
			c-0.1-1.2-0.2-2.3-0.8-3.4c-0.5-0.9-1.2-1.7-2.2-2.1c-2.8-1.1-5.8,1-6,4c-0.1,1,0,2.1,0,3.1c0.1,2,1.4,3.6,3.3,4.1
			c1.9,0.5,3.8-0.3,4.8-2.1C580.6,144.2,580.7,142.9,580.8,141.6z"/>
		<path class="st0" d="M309.7,135c0,1.9,0,3.9,0,5.8c0,1.3,0.2,2.6,0.7,3.8c0.8,1.9,2.3,2.9,4.3,2.9c2.1,0,3.7-0.9,4.5-2.9
			c0.6-1.5,0.7-3,0.7-4.6c0-3.7,0-7.4,0-11c0-1.4-0.1-1.2,1.1-1.2c1.7,0,1.7,0,1.7,1.7c0,3.7,0,7.4,0,11c0,1.3-0.1,2.5-0.5,3.7
			c-1.2,4.2-4.4,5.8-8.4,5.5c-3.8-0.3-6.1-2.5-6.8-6.3c-0.1-0.8-0.2-1.6-0.2-2.4c0-4.1,0-8.2,0-12.3c0-0.9,0-0.9,0.9-0.9
			c1.9-0.1,1.9-0.1,1.9,1.8C309.7,131.4,309.7,133.2,309.7,135z"/>
		<path class="st0" d="M341.9,175.8c1-0.9,1.9-1.6,3.1-2.1c3.7-1.4,7.2,0.8,7.8,4.8c0.1,0.5,0.1,0.9,0.1,1.4c0,3,0,6.1,0,9.1
			c0,1,0,1-1.1,1c-1.9,0-1.9,0-1.9-1.8c0-2.4,0-4.8,0-7.3c0-0.8-0.1-1.6-0.2-2.3c-0.6-2.6-3.2-3.7-5.6-2.3c-1.5,0.9-2.2,2.2-2.2,3.9
			c0,2.9,0,5.8,0,8.7c0,1.1,0,1.1-1.1,1.1c-1.8,0-1.8,0-1.8-1.9c0-6.9,0-13.9,0-20.8c0-0.3,0-0.6,0-0.9c0-0.4,0.1-0.5,0.5-0.5
			c2.4-0.2,2.4-0.3,2.4,2.2C341.9,170.7,341.9,173.2,341.9,175.8z"/>
		<path class="st0" d="M318,170.4c-1.6-0.8-3.2-1.1-4.9-1c-0.7,0-1.4,0.2-2,0.5c-2,1.1-2.4,3.7-0.7,5.3c0.7,0.7,1.6,1.1,2.5,1.5
			c1.3,0.5,2.6,1,3.7,1.8c2.5,1.6,3.5,3.9,2.9,6.8c-0.5,2.4-2.1,3.9-4.4,4.6c-2.8,0.9-5.6,0.6-8.4-0.5c-0.9-0.4-0.9-0.4-0.6-1.4
			c0.2-0.5,0.2-1,0.5-1.5c0.4-0.1,0.6,0.2,0.9,0.3c1.7,0.8,3.5,1.1,5.4,0.9c2.7-0.3,4.3-2.7,3.4-5.1c-0.3-0.8-0.8-1.4-1.5-1.9
			c-0.8-0.6-1.7-1-2.7-1.3c-1.2-0.4-2.3-0.9-3.3-1.7c-3.8-2.7-3.4-8.1,0.8-10.1c2.8-1.3,5.6-1.1,8.4-0.1c0.4,0.1,0.7,0.3,0.4,0.9
			C318.4,169.1,318.2,169.7,318,170.4z"/>
		<path class="st0" d="M461,187.2c0.1,0.4,0.2,0.8,0.3,1.3c0.3,0.9,0.4,0.9-0.6,1.2c-3.1,0.9-6.2,1.1-9.3,0.1
			c-3.3-1.1-5.5-3.2-6.5-6.5c-0.9-2.8-1-5.7-0.1-8.5c1.3-4.2,4.3-6.7,8.6-7.6c2.4-0.5,4.8-0.4,7.2,0.4c1,0.3,1,0.3,0.7,1.3
			c0,0.1-0.1,0.3-0.1,0.4c-0.3,1.1-0.3,1.1-1.4,0.7c-1.9-0.6-3.9-0.7-5.9-0.3c-3.2,0.7-5.2,2.6-6.1,5.7c-0.6,2.2-0.7,4.3-0.1,6.5
			c1,3.6,3.7,5.8,7.4,6c1.8,0.1,3.5,0,5.2-0.7C460.6,187.1,460.8,187,461,187.2z"/>
		<path class="st0" d="M391.1,182c-0.1,0.7-0.1,1.4-0.3,2.1c-1.2,5.6-6.9,7.4-11,5.7c-2.7-1.1-4.2-3.3-4.7-6.1
			c-0.3-1.8-0.2-3.5,0.4-5.2c1.3-3.6,4.5-5.6,8.5-5.2c3.5,0.3,6.3,2.9,6.9,6.6C391,180.6,391,181.3,391.1,182z M378.1,182.1
			c0,1.1,0.2,2.2,0.7,3.3c0.9,1.7,2.2,2.8,4.2,2.8c2,0,3.4-1.1,4.2-2.8c1.2-2.4,1.1-4.9-0.1-7.4c-0.8-1.6-2.1-2.4-4-2.4
			c-1.8,0-3.1,0.8-4,2.4C378.3,179.2,378.1,180.5,378.1,182.1z"/>
		<path class="st0" d="M372.5,181.7c0.1,1-0.1,2-0.4,2.9c-1.1,3.8-4.4,6.1-8.5,5.7c-3.7-0.3-6.5-3-7-6.8c-0.3-1.9-0.1-3.7,0.6-5.5
			c1.3-3.3,4.6-5.2,8.4-4.8c3.4,0.3,6,2.7,6.7,6.1C372.4,180.2,372.5,180.9,372.5,181.7z M369.4,181.9c0-1.6-0.3-3.1-1.2-4.3
			c-1.7-2.6-5.4-2.7-7.3-0.2c-1.8,2.4-1.8,6.5-0.1,8.9c1.9,2.6,5.4,2.6,7.3,0C369.1,184.9,369.4,183.4,369.4,181.9z"/>
		<path class="st0" d="M479.6,181.8c0,1-0.1,2.1-0.4,3.1c-1.2,3.7-4.7,6-8.7,5.5c-3.8-0.4-6.5-3.3-6.8-7.2c-0.1-1.5-0.1-3,0.4-4.5
			c1.2-3.7,4.6-5.9,8.7-5.4c3.7,0.4,6.4,3.3,6.8,7.1C479.6,180.9,479.6,181.4,479.6,181.8z M476.5,181.8c0-1.4-0.3-2.7-1-4
			c-1.8-3.1-6-2.8-7.7-0.3c-1.5,2.4-1.6,6.2,0,8.5c1.9,2.8,5.6,2.8,7.5,0C476.2,184.8,476.5,183.3,476.5,181.8z"/>
		<path class="st0" d="M424.7,181.6c0.1,1.2-0.1,2.2-0.3,3.2c-1.1,3.7-4.5,6-8.6,5.7c-3.8-0.3-6.6-3.1-7-7c-0.2-1.4-0.1-2.8,0.3-4.2
			c1.1-3.9,4.4-6.2,8.6-5.8c3.8,0.3,6.7,3.3,7,7.3C424.7,181,424.7,181.4,424.7,181.6z M421.7,182c0-1.8-0.3-3.3-1.3-4.6
			c-1.7-2.4-5.3-2.5-7.1-0.2c-1.9,2.4-1.9,6.6-0.1,9c2,2.6,5.5,2.5,7.4-0.1C421.4,184.8,421.7,183.4,421.7,182z"/>
		<path class="st0" d="M541.5,187.8c-0.9,1.2-2,2.1-3.5,2.5c-3.9,1-7-1.1-7.3-5.3c-0.1-1.4-0.1-2.8-0.1-4.2c0-2.1,0-4.2,0-6.2
			c0-0.6,0.1-0.9,0.8-0.9c2.1,0,2.1-0.1,2.1,2.1c0,2.3,0,4.5,0,6.8c0,1,0.1,1.9,0.3,2.8c0.7,2.6,2.8,3,4.7,2.4
			c1.7-0.6,2.8-2.1,2.8-4c0-2.8,0-5.6,0-8.4c0-0.3,0-0.6,0-0.9c0-0.5,0.2-0.7,0.7-0.7c2.4-0.2,2.4-0.2,2.4,2.1c0,4.5,0,9,0.1,13.5
			c0,0.6-0.1,0.8-0.7,0.8c-1.8,0-1.8,0.1-2-1.8C541.8,188.1,541.8,188,541.5,187.8z"/>
		<path class="st0" d="M570.9,173.7c0.3,0.8,0.1,1.5,0.4,2.3c0.3-0.3,0.6-0.7,0.9-0.9c1.6-1.5,3.6-2.1,5.7-1.6
			c2.2,0.5,3.5,1.9,4.1,4c0.2,0.7,0.4,1.5,0.3,2.3c0,3.1,0,6.2,0,9.3c0,1,0,1-1,1c-2.4,0-2,0.4-2-2c0-2.3,0-4.7,0-7
			c0-0.9,0-1.8-0.3-2.7c-0.7-2.2-2.8-3.2-4.9-2.3c-1.8,0.8-2.7,2.2-2.7,4.1c0,2.8,0,5.6,0,8.4c0,0.3,0,0.5,0,0.8
			c0,0.5-0.1,0.7-0.7,0.7c-0.6,0-1.2,0-1.8,0c-0.5,0-0.6-0.2-0.6-0.6c0-0.8,0-1.6,0-2.5c0-4.2,0-8.3,0-12.5c0-0.8,0-0.8,0.8-0.9
			C569.8,173.6,570.3,173.7,570.9,173.7z"/>
		<path class="st0" d="M495.7,130.7c-1.5-0.6-3.1-0.9-4.8-0.8c-3.8,0.1-6.6,2.3-7.6,6.1c-0.5,1.8-0.5,3.7,0,5.5
			c1,3.9,4.1,6.1,8.3,5.9c0.7,0,1.4-0.1,2.1-0.2c0.7-0.1,1.3-0.4,2-0.5c0,0,0.1,0.1,0.2,0.1c0.7,2.4,1,2-1.5,2.6
			c-2.1,0.5-4.2,0.6-6.3,0.1c-4.6-1-7.5-4.3-8-9c-0.2-1.9-0.1-3.7,0.5-5.5c1.4-4.4,4.5-6.8,9-7.4c2-0.3,4.1-0.2,6,0.5
			c0.9,0.3,0.9,0.3,0.6,1.3c-0.1,0.4-0.2,0.7-0.3,1.1C495.8,130.5,495.8,130.6,495.7,130.7z"/>
		<path class="st0" d="M523.5,141.9c0-0.9,0.1-1.8,0.3-2.7c1-3.7,4.2-5.9,8-5.6c3.7,0.3,6.2,2.8,6.7,6.6c0.2,1.5,0.1,3-0.3,4.5
			c-1.1,3.6-4.2,5.3-7.7,5.2c-3.6-0.1-6.2-2.5-6.9-5.9C523.5,143.2,523.4,142.5,523.5,141.9z M535.7,141.5c0-1.3-0.3-2.6-1.1-3.8
			c-1.7-2.5-5.2-2.6-7-0.2c-1.7,2.3-1.7,6.2,0,8.4c1.8,2.4,5.1,2.4,6.8,0C535.4,144.6,535.7,143.2,535.7,141.5z"/>
		<path class="st0" d="M498.3,141.9c0-0.8,0.1-1.6,0.2-2.3c0.7-3,2.5-5.1,5.6-5.8c3.1-0.7,5.9,0,7.9,2.7c2.1,2.8,2,7.6,0,10.4
			c-1.8,2.4-5,3.6-8.1,2.7c-3-0.8-4.7-2.9-5.3-5.9C498.4,143.1,498.2,142.5,498.3,141.9z M510.6,141.7c0-1.4-0.3-2.7-1-3.8
			c-1.7-2.7-5.4-2.8-7.2-0.2c-1.5,2.2-1.5,5.8,0,8c1.8,2.7,5.3,2.7,7.1,0C510.3,144.5,510.6,143.1,510.6,141.7z"/>
		<path class="st0" d="M446.3,141.7c0.1-3.2,1.2-5.9,4.2-7.3c4.3-2.1,10.2-0.2,10.9,5.9c0.2,1.4,0.1,2.9-0.3,4.2
			c-1,3.4-3.9,5.4-7.6,5.3c-3.6-0.1-6.3-2.4-7-6C446.4,143.2,446.3,142.4,446.3,141.7z M458.6,142.2c0-2.1-0.4-3.5-1.1-4.6
			c-1.7-2.5-5.1-2.5-7-0.2c-1.7,2.3-1.7,6.3,0,8.5c1.8,2.3,5,2.3,6.8,0C458.2,144.7,458.6,143.2,458.6,142.2z"/>
		<path class="st0" d="M586.1,141.7c-0.1-0.8,0.1-1.5,0.3-2.3c0.9-3.7,4.1-6,8-5.8c3.7,0.2,6.5,2.9,6.9,6.7c0.2,1.6,0.1,3.2-0.5,4.7
			c-1.1,3.1-4,5-7.5,4.8c-3.5-0.1-6.1-2.4-6.9-5.8C586.1,143.2,586,142.5,586.1,141.7z M598.3,141.7c0-1.4-0.3-2.8-1.1-4
			c-1.6-2.4-5.1-2.5-6.9-0.3c-1.8,2.2-1.8,6.3-0.1,8.6c1.8,2.3,5,2.3,6.8,0C597.9,144.7,598.3,143.3,598.3,141.7z"/>
		<path class="st0" d="M431,145.9c1.2-3.6,2.3-7,3.5-10.4c0.7-1.9,0.2-1.6,2.2-1.6c0.4,0,0.8-0.1,1.1,0.1c0.2,0.3,0,0.6-0.1,0.9
			c-1.7,4.5-3.5,9-5.2,13.5c-0.6,1.5-1.3,2.8-2.1,4.2c-1.1,1.6-2.4,2.9-4.2,3.7c-1.1,0.4-1.1,0.4-1.4-0.6c-0.1-0.2-0.1-0.3-0.1-0.5
			c-0.3-0.6-0.1-1,0.5-1.3c1.7-0.8,2.9-2.1,3.8-3.7c0.4-0.8,0.4-1.4,0.1-2.2c-1.7-4.2-3.4-8.3-5-12.5c-0.2-0.4-0.5-0.8-0.4-1.4
			c0.1,0,0.2-0.1,0.4-0.1c0.9,0.1,1.8-0.3,2.5,0.2c0.6,0.5,0.7,1.4,1,2.2c1.1,3,2.4,6,3.3,9.1C430.8,145.6,430.9,145.7,431,145.9z"
			/>
		<path class="st0" d="M379,146.9c0.7,2.2,0.9,2-1.3,2.6c-1.5,0.4-3.1,0.5-4.6,0.3c-3.2-0.4-5.4-2.4-6.1-5.5
			c-0.5-2.3-0.3-4.6,0.7-6.7c1.6-3.2,5-4.7,8.4-3.6c1.4,0.4,2.5,1.3,3.2,2.6c0.8,1.5,1.1,3.2,1.1,4.9c0,0.7-0.3,0.9-0.9,0.9
			c-2.9,0-5.8,0-8.7,0c-1.4,0-1.5,0.1-1.2,1.6c0.5,2.2,2.3,3.6,4.7,3.8C376,147.7,377.5,147.4,379,146.9z M369.6,140.2
			c0.3,0,0.5,0.1,0.7,0.1c2.2,0,4.4,0,6.6,0c0.4,0,0.8,0,0.8-0.6c0.1-2.1-1.6-4-3.7-4C371.7,135.6,369.9,137.3,369.6,140.2z"/>
		<path class="st0" d="M330.1,136.3c1.1-1.5,2.4-2.3,4-2.7c2.8-0.5,5.3,0.9,6.2,3.6c0.3,0.9,0.4,1.8,0.4,2.7c0,2.9,0,5.7,0,8.6
			c0,0.9,0,0.9-0.9,0.9c-2,0.1-2,0.1-2-1.8c0-2.3,0-4.6,0-6.9c0-0.7-0.1-1.3-0.2-1.9c-0.6-3.2-4-3.5-5.8-1.9c-1,0.9-1.5,2-1.5,3.3
			c0,2.5,0,5,0,7.5c0,0.3,0,0.6,0,0.9c0.1,0.7-0.2,0.8-0.9,0.9c-2,0-2,0.1-2-2c0-4.3,0.1-8.6-0.1-12.9c0-0.6,0.2-0.8,0.7-0.8
			c0.2,0,0.3,0,0.5,0c1.2,0,1.2,0,1.3,1.2C330,135.4,330.1,135.7,330.1,136.3z"/>
		<path class="st0" d="M244.7,199.3c0,2,0,3.8,0,5.5c0,1.2,0.3,1.3-1.2,1.3c-1.1,0-1.1,0-1.1-1.1c0-4.5,0-9.1,0-13.6
			c0-1-0.1-2-0.1-3c0-0.4,0.1-0.6,0.6-0.6c0.2,0,0.3,0,0.5,0c1.1,0,1.1,0,1.1,1c0,0.2-0.1,0.5,0.1,0.7c0.3,0.1,0.4-0.2,0.6-0.4
			c2.6-2.7,7-2.1,8.6,1.3c1.3,2.6,1.2,5.2-0.1,7.7C252.1,201.3,247.5,202.3,244.7,199.3z M252.2,194.4c0-1.2-0.2-2.2-0.8-3.2
			c-0.4-0.8-1.1-1.3-1.9-1.6c-2.2-0.7-4.6,0.9-4.8,3.4c-0.1,0.9-0.1,1.8,0,2.7c0.1,1.7,1.2,3.1,2.8,3.4c1.6,0.4,3.2-0.4,4-1.9
			C252,196.4,252.1,195.4,252.2,194.4z"/>
		<path class="st0" d="M150,189.3c0-2.2,0-4.1,0-6.1c0-1.6-0.3-1.4,1.4-1.4c0.3,0,0.6-0.1,0.9,0.1c0.2,0.4,0.1,0.8,0.1,1.1
			c0,5.7,0,11.3,0.1,17c0,0.6-0.1,0.9-0.8,0.8c-0.2,0-0.4,0-0.6,0c-0.6,0.1-0.8-0.2-0.7-0.7c0-0.3,0-0.7-0.1-1
			c-0.4-0.1-0.5,0.2-0.7,0.4c-2.2,2.3-5.9,2.1-7.9-0.4c-1.4-1.8-1.7-3.8-1.4-6c0.1-0.6,0.2-1.1,0.4-1.6
			C142.1,187.5,146.9,186.2,150,189.3z M150.1,194.3c0-0.6,0-1.2-0.1-1.8c-0.2-1.6-1.4-2.8-2.9-3.1c-1.4-0.2-2.9,0.5-3.6,1.9
			c-1,1.9-1,3.9-0.1,5.9c0.7,1.4,2,2.1,3.5,2c1.5-0.2,2.7-1.2,3.1-2.7C150.1,195.8,150,195,150.1,194.3z"/>
		<path class="st0" d="M435.6,175.9c-1,0-2,0-3.1,0c-0.6,0-0.8,0.2-0.8,0.7c0,1.3,0,2.6,0,3.9c0,2.8,0,5.6,0,8.4
			c0,1.1,0,1.1-1.1,1.1c-1.8,0-1.8,0-1.8-1.9c0-3.8,0-7.5,0-11.3c0-1,0-1-1-1c-0.3,0-0.5,0-0.8,0c-0.4,0-0.5-0.2-0.5-0.5
			c0-0.1,0-0.3,0-0.4c0-1.4-0.1-1.3,1.3-1.3c0.9,0,0.9,0,1-0.9c0-1,0.1-2,0.4-3c1.1-3.9,4.7-4.6,7.5-3.9c0.5,0.1,0.6,0.4,0.5,0.8
			c-0.1,0.3-0.1,0.5-0.2,0.8c-0.2,0.8-0.2,0.8-1,0.7c-2.3-0.4-3.5,0.5-4,2.7c0,0.1,0,0.2-0.1,0.3c-0.5,2.5-0.5,2.5,2,2.5
			c2,0,2,0,1.8,2C435.7,175.7,435.6,175.8,435.6,175.9z"/>
		<path class="st0" d="M556.9,187.8c0,0.3,0.1,0.4,0.1,0.6c0.1,1.8,0.1,1.8-1.8,2c-0.6,0.1-1.2,0.1-1.8-0.1
			c-1.8-0.4-2.9-1.5-3.2-3.3c-0.1-0.9-0.2-1.7-0.2-2.6c0-2.5,0-5,0-7.5c0-1,0-1-1-1c-1.6,0-1.6,0-1.5-1.7c0-0.5,0.3-0.6,0.7-0.6
			c0.6,0,1.3,0.2,1.6-0.1c0.4-0.4,0.1-1.2,0.1-1.7c0-2.1,0-2.1,2-2.6c0.3-0.1,0.6-0.2,1-0.1c0,1.2,0,2.5,0,3.7
			c0,0.6,0.1,0.9,0.8,0.8c0.9-0.1,1.8,0,2.7,0c0.6,0,0.8,0.2,0.7,0.8c0,0.1,0,0.2,0,0.3c0,1.4,0.2,1.2-1.2,1.3c-0.8,0-1.6,0-2.3,0
			c-0.5,0-0.7,0.2-0.7,0.7c0,1.6,0,3.2,0,4.8c0,1.2,0,2.4,0,3.6c0,2,0.7,3.1,3,2.8C556.3,187.8,556.5,187.8,556.9,187.8z"/>
		<path class="st0" d="M214.5,181.9c2.4-0.2,2.4-0.2,2.4,1.9c0,1.9,0,3.7,0,5.6c0.5,0.2,0.6-0.2,0.7-0.4c1.4-1.3,3.1-1.8,4.9-1.1
			c1.9,0.7,2.7,2.2,2.9,4.1c0.1,1.5,0.1,3,0.1,4.5c0,1.3,0,2.5,0,3.8c0,0.5-0.2,0.6-0.7,0.7c-1.7,0.1-1.7,0.1-1.7-1.6
			c0-1.9,0-3.8,0-5.7c0-0.6,0-1.2-0.2-1.8c-0.7-2.2-3-3-4.8-1.5c-0.8,0.7-1.3,1.6-1.3,2.7c0,2.2,0,4.5,0,6.7c0,1.1,0.2,1.1-1,1.1
			c-0.3,0-0.5,0-0.8,0c-0.5,0-0.6-0.2-0.6-0.6C214.5,194.1,214.5,188,214.5,181.9z"/>
		<path class="st0" d="M468.1,149.4c-1,0-1.8,0-2.7,0c-0.3-0.3-0.2-0.7-0.2-1c0-3.7,0-7.4,0-11c0-1.2,0-1.2-1.2-1.3
			c-0.3,0-0.8,0.2-0.9-0.3c-0.1-0.6-0.2-1.2,0.1-1.8c0-0.1,0.3-0.1,0.5-0.1c0.5,0,0.9,0,1.5,0c0.1-0.9,0.2-1.8,0.3-2.7
			c0.6-3.6,3.4-5.5,7-4.7c0.9,0.2,0.9,0.2,0.7,1.1c0,0.1-0.1,0.2-0.1,0.3c-0.1,0.3-0.1,0.6-0.2,0.9c-0.4,0.2-0.8-0.1-1.1-0.1
			c-1.7-0.3-3,0.5-3.4,2.2c-0.2,0.8-0.3,1.5-0.3,2.3c0,0.6,0.2,0.7,0.8,0.7c0.7,0,1.4,0,2.1,0c1,0,1,0,1,1c0,0.2,0,0.3,0,0.5
			c0,0.5-0.2,0.7-0.7,0.7c-0.7,0-1.4,0-2.1,0c-1,0-1,0-1,1.1c0,3.6,0,7.2,0,10.8C468.1,148.4,468.1,148.8,468.1,149.4z"/>
		<path class="st0" d="M322.6,182c-0.1-5.3,3.9-9.3,10-8.6c0.4,0,0.9,0.1,1.3,0.2c1.9,0.6,1.7,0.4,1.2,2c-0.2,0.8-0.3,0.8-1.1,0.5
			c-1-0.3-1.9-0.5-2.9-0.4c-3.4,0.3-5.5,2.8-5.4,6.3c0.1,2.9,1.5,5,3.9,5.7c1.5,0.4,2.9,0.3,4.3-0.2c1.1-0.3,1.1-0.3,1.4,0.8
			c0.3,1.1,0.3,1.2-0.8,1.5c-1.8,0.5-3.5,0.7-5.4,0.4c-3.7-0.7-6.1-3.3-6.4-7.1C322.6,182.8,322.6,182.4,322.6,182z"/>
		<path class="st0" d="M350.9,133.9c0.9,0,1.6,0,2.3,0c0.7-0.1,0.9,0.3,1.1,0.8c1.2,3.6,2.5,7.2,3.7,10.8c0.1,0.2,0,0.4,0.3,0.6
			c0.3-0.2,0.3-0.6,0.4-1c1.2-3.4,2.4-6.8,3.6-10.3c0.2-0.7,0.6-1.1,1.4-1c0.6,0.1,1.2,0,1.7,0c0.2,0.5,0,0.8-0.2,1.1
			c-1.7,4.5-3.5,8.9-5.3,13.4c-0.5,1.2-0.2,1.1-1.7,1.1c-0.2,0-0.4,0-0.6,0c-0.7,0.1-1-0.2-1.2-0.8c-0.9-2.5-1.9-5-2.8-7.5
			C352.7,138.8,351.8,136.4,350.9,133.9z"/>
		<path class="st0" d="M104.3,198c1.7,0.8,3.4,1.3,5.1,1.1c1.5-0.3,2.5-1.1,2.8-2.4c0.3-1.3-0.3-2.5-1.5-3.3c-0.6-0.4-1.3-0.7-2-0.9
			c-1-0.4-2-0.8-2.8-1.5c-2.5-2.1-2.3-5.7,0.4-7.5c0.9-0.6,2-0.9,3.1-1c1.4-0.1,2.7,0.1,4,0.6c0.5,0.2,0.7,0.5,0.5,1
			c-0.2,0.4-0.2,0.8-0.6,1.2c-1.2-0.6-2.6-0.9-4-0.8c-1.8,0.2-2.9,1.4-2.7,3c0.1,0.8,0.5,1.4,1.2,1.9c0.6,0.5,1.3,0.8,2.1,1.1
			c1,0.4,1.9,0.8,2.8,1.4c3.1,2,2.7,7-0.7,8.6c-1.7,0.8-3.4,0.9-5.2,0.6c-0.8-0.1-1.6-0.3-2.4-0.7c-0.5-0.2-0.7-0.4-0.4-1
			C104,198.9,104.1,198.5,104.3,198z"/>
		<path class="st0" d="M418.1,129.5c0,1.3,0,2.4,0,3.6c0,0.6,0.2,0.8,0.8,0.8c0.9,0,1.7,0,2.6,0c0.5,0,0.7,0.2,0.7,0.7
			c0,0.1,0,0.2,0,0.3c0,1.3,0,1.3-1.2,1.3c-0.7,0-1.5,0-2.2,0c-0.4,0-0.6,0.1-0.6,0.6c0,2.8,0,5.6,0.1,8.4c0.1,2,0.9,2.5,2.8,2.3
			c0.9-0.1,0.9-0.1,1,0.8c0.1,1.3,0.1,1.3-1.3,1.5c-0.3,0-0.5,0.1-0.8,0.1c-2.6,0.2-4.3-1.2-4.5-3.9c-0.1-2.6-0.1-5.2-0.1-7.8
			c0-0.3,0-0.7,0-1c0-1,0-1-1-1c-1.6,0-1.6-0.1-1.5-1.6c0-0.4,0.2-0.6,0.6-0.6c0.1,0,0.2,0,0.3,0c1.6-0.1,1.6-0.1,1.6-1.7
			c0-2,0-2,1.9-2.5C417.4,129.6,417.6,129.6,418.1,129.5z"/>
		<path class="st0" d="M207,201.1c-1,0.1-2-0.1-3-0.4c-2.9-0.9-4.8-2.7-5.6-5.6c-0.6-2-0.6-3.9-0.1-5.9c1-4.1,4.2-6.5,8.6-6.8
			c1.3-0.1,2.7,0.1,4,0.5c0.8,0.2,1.1,0.4,0.6,1.2c-0.1,0.1-0.1,0.3-0.1,0.5c-0.1,0.5-0.4,0.6-0.8,0.4c-1.2-0.5-2.4-0.6-3.7-0.5
			c-2.8,0.1-5,1.8-5.9,4.5c-0.5,1.5-0.6,3.1-0.3,4.6c0.7,3.7,3.2,5.7,7,5.5c1,0,2.1-0.1,3-0.5c0.4-0.2,0.6,0,0.7,0.4
			c0,0.2,0.1,0.4,0.2,0.6c0.3,0.6,0,0.8-0.5,0.9C209.8,200.9,208.4,201.2,207,201.1z"/>
		<path class="st0" d="M402.3,136.6c-0.9-0.4-1.8-0.7-2.7-0.8c-0.7-0.1-1.4,0-2,0.4c-1.3,0.7-1.4,2.3-0.3,3.2c0.6,0.5,1.3,0.7,2,1
			c0.9,0.4,1.8,0.8,2.6,1.4c2.4,2,2.2,5.7-0.6,7.2c-2.5,1.3-5,1.1-7.5,0.1c-0.4-0.2-0.5-0.4-0.3-0.8c0.2-0.5,0.3-1,0.5-1.5
			c0.5-0.1,0.8,0.3,1.2,0.4c1.2,0.5,2.3,0.6,3.6,0.4c1.1-0.2,1.8-0.9,2-1.8c0.2-1-0.2-1.8-1.1-2.3c-0.5-0.4-1.1-0.6-1.7-0.8
			c-0.9-0.3-1.7-0.7-2.4-1.2c-2.4-1.8-2.3-5.1,0.2-6.8c2.2-1.4,4.5-1.2,6.8-0.3c0.3,0.1,0.5,0.4,0.3,0.7
			C402.7,135.5,402.5,136,402.3,136.6z"/>
		<path class="st0" d="M172,189.7c1.2-1.4,2.4-2.1,4.1-2.1c2.2,0,3.9,1.2,4.5,3.4c0.2,0.6,0.3,1.2,0.3,1.8c0,2.5,0,4.9,0,7.4
			c0,0.6-0.1,0.8-0.7,0.7c-0.5,0-1,0-1.7,0c0-1.1,0-2.1,0-3.1c0-1.3,0-2.7,0-4c0-0.5,0-1-0.1-1.5c-0.4-1.8-1.3-2.6-2.9-2.6
			c-1.6,0-3,1.2-3.2,2.8c-0.1,0.6,0,1.3,0,1.9c0,1.9,0,3.8,0,5.7c0,0.6-0.2,0.9-0.8,0.8c0,0-0.1,0-0.1,0c-1.8,0-1.5,0.2-1.5-1.5
			c0-3.5,0-7.1-0.1-10.6c0-0.6,0.1-0.9,0.8-0.9c1.2,0,1.2,0,1.4,1.2C171.8,189.2,171.9,189.3,172,189.7z"/>
		<path class="st0" d="M165.6,198.7c0.7,1.7,0.6,1.8-1,2.1c-1.6,0.3-3.2,0.5-4.8,0.1c-2.1-0.5-3.5-1.8-4.1-3.9
			c-0.7-2.1-0.5-4.1,0.4-6.1c1.2-2.5,3.8-3.8,6.6-3.3c2.1,0.4,3.7,2.2,4,4.7c0.4,2.4,0.3,2.5-2.1,2.5c-2.1,0-4.2,0-6.2,0
			c-0.8,0-0.8,0.1-0.7,0.8c0.3,2.1,1.8,3.5,4.1,3.6C163.1,199.3,164.4,199,165.6,198.7z M157.8,193c2.2,0,4.4,0,6.7,0
			c0-2.2-1-3.5-2.8-3.7C159.6,189.1,158.2,190.5,157.8,193z"/>
		<path class="st0" d="M267.6,194.8c0.1,2.8,1.6,4.4,4.2,4.4c0.6,0,1.3,0,1.9-0.2c0.6-0.1,1.2-0.3,1.7-0.4c0.2,0.2,0.2,0.4,0.3,0.6
			c0.3,1,0.3,1.1-0.7,1.4c-1.7,0.5-3.5,0.6-5.3,0.2c-2.1-0.5-3.5-1.8-4.1-3.9c-0.7-2.1-0.5-4.2,0.5-6.2c1.2-2.5,3.8-3.7,6.5-3.2
			c2.2,0.4,3.7,2.3,4.1,4.8c0.3,2.4,0.3,2.4-2.1,2.4C272.3,194.8,270,194.8,267.6,194.8z M274.3,193c0-2.3-1.1-3.6-3-3.7
			c-1.9-0.1-3.4,1.3-3.7,3.7C269.9,193,272,193,274.3,193z"/>
		<path class="st0" d="M135.5,200.9c-0.3-0.6,0-1.2-0.4-1.7c-0.3,0.1-0.5,0.4-0.7,0.6c-1.5,1.4-3.3,1.8-5.2,1.1
			c-1.9-0.7-2.6-2.2-2.7-4c-0.1-1.1-0.1-2.2-0.1-3.4c0-1.6,0-3.3,0-4.9c0-0.5,0.2-0.7,0.7-0.7c1.7-0.1,1.7-0.1,1.7,1.6
			c0,1.9,0,3.7,0,5.6c0,0.7,0,1.4,0.2,2.1c0.6,2,2.4,2.7,4.2,1.7c1.1-0.7,1.7-1.7,1.7-3c0-2.2,0-4.3,0-6.5c0-0.3,0-0.6,0-0.9
			c0-0.2,0-0.5,0.3-0.5c0.6,0,1.2,0,1.8,0c0.2,0,0.3,0.2,0.3,0.3c0,0.3,0,0.5,0,0.8c0,3.7,0,7.4,0.1,11c0,0.7-0.2,0.9-0.9,0.8
			C136.2,200.8,135.8,200.9,135.5,200.9z"/>
		<path class="st0" d="M236.1,192.6c0-2.3-0.9-3.2-3.1-3.2c-0.9,0-1.8,0.2-2.6,0.6c-0.5,0.3-0.7,0.1-0.8-0.3c-0.3-1-0.4-1,0.5-1.4
			c1.5-0.7,3.1-0.9,4.7-0.6c2.2,0.3,3.5,1.9,3.7,4.4c0.1,1.5,0,2.9,0,4.4c0,1.3-0.1,2.5,0.2,3.8c0.1,0.5-0.1,0.7-0.6,0.7
			c0,0-0.1,0-0.1,0c-1.4,0.1-1.4,0.1-1.6-1.3c-0.4-0.1-0.5,0.3-0.7,0.4c-1.3,1-2.7,1.3-4.3,1c-1.5-0.3-2.5-1.2-2.9-2.7
			c-0.4-1.6,0-2.9,1.2-4c1-0.9,2.2-1.3,3.5-1.5C234.1,192.6,235,192.5,236.1,192.6z M236.2,195.8c0-1.6,0-1.6-1.6-1.5
			c-0.2,0-0.4,0-0.6,0.1c-0.8,0.1-1.6,0.3-2.3,0.9c-0.8,0.7-1.1,1.8-0.8,2.8c0.3,0.9,1.1,1.4,2.3,1.3
			C235.1,199.3,236.2,197.9,236.2,195.8z"/>
		<path class="st0" d="M519.8,149.4c-0.9,0-1.8,0-2.6,0c-0.3-0.3-0.2-0.6-0.2-0.9c0-6.9,0-13.8,0-20.8c0-1.1,0-1.1,1-1.1
			c0.4,0,0.9,0,1.3,0c0.1,0,0.3,0,0.4,0.1C519.8,134.3,519.8,141.8,519.8,149.4z"/>
		<path class="st0" d="M394.8,178c0-3.7,0-7.4,0-11c0-0.9,0-0.9,0.9-0.9c2.1,0,2.1,0,2.1,2c0,6.8,0,13.7,0,20.5c0,0.3,0,0.6,0,0.9
			c0,0.5-0.2,0.7-0.7,0.7c-2.3,0.2-2.3,0.2-2.3-2.2C394.8,184.6,394.8,181.3,394.8,178z"/>
		<path class="st0" d="M386.3,134c0.1,0.8,0.1,1.6,0.2,2.5c0.5-0.3,0.6-0.7,0.8-1c0.9-1.2,2.1-1.9,3.6-1.9c0.5,0,0.8,0.2,0.8,0.8
			c0,0.2,0,0.4,0,0.6c0,1.2,0,1.2-1.3,1.3c-1.5,0.1-2.5,0.9-3.1,2.2c-0.4,0.9-0.6,1.8-0.6,2.8c0,2.2,0,4.5,0,6.7c0,0.4,0,0.9,0,1.3
			c-1,0.2-1.9,0.1-2.7,0.1c-0.2-0.5-0.1-0.9-0.1-1.4c0-4.4,0-8.8-0.1-13.2c0-0.9,0-0.9,0.9-1c0.3,0,0.7,0,1,0
			C385.9,133.9,386.1,134,386.3,134z"/>
		<path class="st0" d="M260.4,189.6c0,2.6,0,4.9,0,7.3c0,1.8,0.6,2.3,2.4,2.1c0.4,0,0.7-0.1,0.7,0.4c0,0.5,0.5,1.2-0.4,1.4
			c-2.1,0.5-4.7,0.3-5-3c-0.1-1-0.1-2.1-0.1-3.1c0-1.1,0-2.2,0-3.2c0-0.6,0.2-1.3-0.1-1.8c-0.4-0.5-1.1,0-1.7-0.2
			c-0.2-0.2-0.1-0.5-0.1-0.7c0-1.1-0.1-1.1,1-1c0.9,0,0.9,0,0.9-0.9c0-0.1,0-0.3,0-0.4c0-2.1,0-2.1,2.3-2.3c0,1.2,0,2.3,0,3.5
			c1.1,0.2,2.2,0,3.2,0.1c0.2,0.5,0.1,1.1,0.1,1.7C262.6,189.6,261.6,189.6,260.4,189.6z"/>
		<path class="st0" d="M190.3,199.1c0.4,1.7,0.5,2-1.6,2c-2.3,0.1-3.3-0.9-3.7-3.1c-0.1-0.6-0.1-1.2-0.1-1.8c0-1.9,0-3.9,0-5.8
			c0-0.5-0.1-0.8-0.6-0.7c-0.1,0-0.3,0-0.4,0c-1,0-0.9,0-1-1c0-0.7,0.2-0.9,0.9-0.8c0.2,0,0.4,0,0.6,0c0.3,0,0.5-0.2,0.5-0.5
			c0-0.6,0.1-1.2,0-1.8c-0.1-0.7,0.2-1,0.8-1c0.5-0.1,0.9-0.3,1.4-0.3c0.2,0.9,0.1,1.9,0.1,2.8c0,0.6,0.1,0.9,0.8,0.8
			c0.6,0,1.2,0,1.8,0c0.7-0.1,0.8,0.2,0.8,0.8c0,0.2,0,0.3,0,0.5c0,0.4-0.2,0.5-0.5,0.5c-0.7,0-1.5,0-2.2,0c-0.4,0-0.6,0.1-0.6,0.6
			c0,2.3,0,4.6,0,6.9c0.1,1.6,0.7,2.1,2.4,2C189.9,199.1,190.1,199.1,190.3,199.1z"/>
		<path class="st0" d="M120.5,184.2c0,1,0,1.9,0,2.8c0,0.5,0.1,0.8,0.7,0.8c0.7,0,1.4,0,2.1,0c0.5,0,0.6,0.2,0.6,0.6
			c0.1,1.2,0.1,1.2-1.1,1.2c-0.7,0-1.7-0.3-2.1,0.2c-0.4,0.5-0.1,1.4-0.1,2.1c0,1.6,0,3.1,0,4.7c0,0.4,0,0.9,0.1,1.3
			c0.3,0.9,0.9,1.2,2,1.2c0.4,0,0.9-0.3,1,0.5c0,1.1,0,1.3-0.8,1.4c-0.6,0.1-1.3,0.1-1.9,0c-1.3-0.2-2.1-0.9-2.5-2.1
			c-0.2-0.7-0.2-1.4-0.2-2.1c0-2.1,0-4.2,0-6.2c0-0.9,0-0.9-0.9-0.9c-0.2,0-0.3,0-0.5,0c-0.4,0-0.7-0.1-0.6-0.6c0-0.3,0-0.5,0-0.8
			c0-0.3,0.1-0.5,0.5-0.5c0.3,0,0.6,0,0.9,0c0.5,0,0.7-0.2,0.7-0.7c0-0.2,0-0.4,0-0.6C118.2,184.5,118.2,184.5,120.5,184.2z"/>
		<path class="st0" d="M563.5,181.9c0,2.4,0,4.7,0,7.1c0,1.1,0,1.1-1.1,1.1c-1.8,0-1.8,0-1.8-1.9c0-4.4,0-8.9,0-13.3
			c0-1.3-0.1-1.2,1.3-1.2c1.7,0,1.7,0,1.7,1.7C563.5,177.6,563.5,179.7,563.5,181.9z"/>
		<path class="st0" d="M410,141.7c0,2.3,0,4.7,0,7c0,0.6-0.1,0.8-0.8,0.8c-2.1,0-2.1,0.1-2.1-2c0-4.2,0-8.4,0-12.6c0-1,0-1,1-1
			c2.3,0,1.8-0.3,1.8,1.8C410,137.7,410,139.7,410,141.7z"/>
		<path class="st0" d="M348.1,149.5c-1-0.1-2.1,0.3-2.7-0.2c-0.5-0.5-0.2-1.5-0.2-2.3c0-4,0-8,0-11.9c0-1.1,0-1.1,1-1.1
			c1.8,0,1.8,0,1.8,1.8c0,4.1,0,8.2,0,12.3C348.1,148.5,348.1,148.9,348.1,149.5z"/>
		<path class="st0" d="M281.5,187.9c0.2,0.6,0,1.2,0.2,1.8c0.4-0.1,0.5-0.5,0.7-0.8c0.8-0.9,1.7-1.4,2.9-1.4c0.4,0,0.6,0.2,0.6,0.6
			c0,0.5,0,1,0,1.4c-0.2,0.3-0.3,0.3-0.5,0.3c-2-0.2-3.2,1.4-3.4,3c-0.1,0.6-0.1,1.1-0.1,1.7c0,1.9,0,3.7,0,5.6
			c0,0.5-0.1,0.8-0.7,0.8c-1.7,0.1-1.7,0.1-1.7-1.7c0-3.5,0-6.9,0-10.4c0-1,0-1,1-1C280.8,187.8,281.2,187.8,281.5,187.9z"/>
		<path class="st0" d="M562,170.9c-1,0-1.9-0.9-1.8-1.9c0-1.1,0.8-1.8,1.9-1.8c1.1,0,1.8,0.8,1.8,1.9
			C563.9,170.2,563.1,170.9,562,170.9z"/>
		<path class="st0" d="M408.5,127.8c1,0,1.8,0.7,1.8,1.8c0,1.1-0.7,1.8-1.8,1.7c-1,0-1.7-0.7-1.7-1.7
			C406.8,128.6,407.5,127.8,408.5,127.8z"/>
		<path class="st0" d="M346.7,131.3c-1,0-1.8-0.8-1.7-1.8c0-1,0.8-1.7,1.7-1.7c1,0,1.8,0.7,1.8,1.8
			C348.5,130.6,347.8,131.3,346.7,131.3z"/>
	</g>
	<path class="st0" d="M292.9,212.1l-95.4,95.4L51.5,161.6L197.5,15.7l95.2,95.2h15.7L197.5,0l-31.6,31.6l-18-18L0,161.5l147.9,147.9
		l17.9-17.9l31.7,31.7l111.1-111.1H292.9z M148.1,301.9l-0.8,0.8l0,0L148.1,301.9L7.7,161.5L148.1,21.1l14.1,14.1L35.9,161.6
		l126.3,126.3L148.1,301.9L148.1,301.9z"/>
</g>
</svg>
