<?xml version="1.0" encoding="UTF-8"?>
<!-- Generator: Adobe Illustrator 22.1.0, SVG Export Plug-In . SVG Version: 6.00 Build 0)  -->
<svg version="1.1" id="Layer_1" xmlns="http://www.w3.org/2000/svg" xmlns:xlink="http://www.w3.org/1999/xlink" x="0px" y="0px" viewBox="0 0 166 208.8" style="enable-background:new 0 0 166 208.8;" xml:space="preserve">
<style type="text/css">
	.st0{fill-rule:evenodd;clip-rule:evenodd;fill:#4B79D6;}
	.st1{fill-rule:evenodd;clip-rule:evenodd;}
	.st2{fill-rule:evenodd;clip-rule:evenodd;fill:#E6E6E6;}
	.st3{fill-rule:evenodd;clip-rule:evenodd;fill:#CCCCCC;}
	.st4{fill-rule:evenodd;clip-rule:evenodd;fill:#4D4D4D;}
	.st5{fill-rule:evenodd;clip-rule:evenodd;fill:#808080;}
	.st6{fill-rule:evenodd;clip-rule:evenodd;fill:#FFFF00;}
	.st7{display:none;fill-rule:evenodd;clip-rule:evenodd;fill:#FFA7BE;}
	.st8{fill-rule:evenodd;clip-rule:evenodd;fill:#FFFFFF;}
	.st9{fill-rule:evenodd;clip-rule:evenodd;fill:#999999;}
</style>
<g>
	<path class="st0" d="M83,181.4c37.6,0,68,4.1,68,9.2c0,5.1-30.5,9.2-68,9.2s-68-4.1-68-9.2C15,185.6,45.4,181.4,83,181.4L83,181.4z   "/>
	<polygon class="st1" points="58.8,152.8 66,173.9 73.6,171.3 66.5,150.2  "/>
	<path class="st2" d="M72.6,168.2l-18.4,6.1c-3.7,1.3-5.7,5.2-4.5,8.9l2.2,6.7l25.2-8.5L72.6,168.2z"/>
	<polygon class="st3" points="49.7,183.3 51.9,189.9 77.1,181.4 74.9,174.8  "/>
	<polygon class="st1" points="74,128.3 67.5,149.5 59.7,147.2 66.3,125.9  "/>
	<path class="st4" d="M64.8,145.2c4.8,1.4,7.6,6.6,6,11.3c-1.5,4.8-6.6,7.6-11.5,6.1c-4.8-1.5-7.4-6.6-6-11.5   C54.9,146.3,60,143.6,64.8,145.2L64.8,145.2z"/>
	<path class="st5" d="M64.8,145.2c4.8,1.4,7.6,6.6,6,11.3l-17.5-5.3C54.9,146.3,60,143.6,64.8,145.2L64.8,145.2z"/>
	<rect x="93.8" y="157" class="st1" width="8.2" height="22.2"/>
	<polygon class="st1" points="91.4,130.3 102.5,149.4 95.5,153.5 84.3,134.3  "/>
	<path class="st5" d="M79.7,86.6c14.8,0,26.7,12,26.7,26.8c0,14.8-11.9,26.7-26.7,26.7c-14.8,0-26.8-11.9-26.8-26.7   C52.9,98.6,64.9,86.6,79.7,86.6L79.7,86.6z"/>
	<path class="st4" d="M79.7,140.1c-14.8,0-26.8-11.9-26.8-26.7c0-14.8,12-26.8,26.8-26.8V140.1z"/>
	<polygon class="st1" points="128.8,128.3 136.9,107.5 144.4,110.4 136.3,131.1  "/>
	<polygon class="st1" points="142.2,112.1 121.5,104.1 124.3,96.5 145.1,104.5  "/>
	<path class="st5" d="M120.3,108c-5-0.7-8.5-5.3-7.8-10.3c0.6-5.1,5.2-8.5,10.3-7.9c5,0.7,8.5,5.3,7.8,10.4   C129.9,105.1,125.3,108.7,120.3,108L120.3,108z"/>
	<path class="st4" d="M120.3,108c-5-0.7-8.5-5.3-7.8-10.3l18.1,2.5C129.9,105.1,125.3,108.7,120.3,108L120.3,108z"/>
	<path class="st4" d="M140.1,114.4c-3.5-0.5-6.1-3.8-5.7-7.3c0.6-3.7,3.9-6.1,7.4-5.7c3.5,0.5,6.1,3.8,5.7,7.4   C147,112.4,143.6,114.9,140.1,114.4L140.1,114.4z"/>
	<path class="st5" d="M141.8,101.5c3.5,0.5,6.1,3.8,5.7,7.4c-0.5,3.5-3.9,6-7.4,5.6L141.8,101.5z"/>
	<path class="st3" d="M124.5,143.6c-4.1-2.7-6-8-4.1-12.9c2.2-5.6,8.5-8.3,13.9-6c5.6,2.1,8.3,8.4,6,13.9c-1.9,4.8-7,7.4-11.9,6.5   l2.2-5.6c1.9-0.1,3.5-1.3,4.3-3.1c1.1-2.6-0.2-5.4-2.7-6.4c-2.5-1.1-5.3,0.1-6.4,2.7c-0.7,1.8-0.2,3.8,0.9,5.2L124.5,143.6z"/>
	<path class="st2" d="M134.3,124.7c5.6,2.1,8.3,8.4,6,13.9c-1.9,4.8-7,7.4-11.9,6.5l2.2-5.6c1.9-0.1,3.5-1.3,4.3-3.1   c1.1-2.6-0.2-5.4-2.7-6.4L134.3,124.7z"/>
	<polygon class="st1" points="34.5,62.6 29.3,84.2 21.3,82.3 26.5,60.7  "/>
	<polygon class="st1" points="23.4,80.4 45,85.6 43.1,93.4 21.5,88.2  "/>
	<path class="st4" d="M45.6,81.6c5.1,0,9.2,4.1,9.2,9.1c0,5.1-4.1,9.2-9.2,9.2s-9.1-4.1-9.1-9.2C36.5,85.7,40.5,81.6,45.6,81.6   L45.6,81.6z"/>
	<path class="st5" d="M45.6,81.6c5.1,0,9.2,4.1,9.2,9.1H36.5C36.5,85.7,40.5,81.6,45.6,81.6L45.6,81.6z"/>
	<path class="st5" d="M25.1,77.8c3.7,0,6.6,3,6.6,6.5c0,3.7-3,6.6-6.6,6.6s-6.6-3-6.6-6.6C18.5,80.8,21.5,77.8,25.1,77.8L25.1,77.8z   "/>
	<path class="st4" d="M25.1,90.9c-3.7,0-6.6-3-6.6-6.6c0-3.5,3-6.5,6.6-6.5V90.9z"/>
	<path class="st2" d="M36.6,46.8c4.6,2.1,7.1,7.2,5.9,12.3c-1.4,5.8-7.3,9.2-13,7.8c-5.8-1.4-9.3-7.2-7.9-13c1.3-5.1,6-8.4,11-8.2   l-1.4,5.9c-1.9,0.4-3.4,1.8-3.9,3.7c-0.6,2.6,0.9,5.3,3.5,6c2.7,0.6,5.3-1.1,6-3.7c0.5-1.9-0.2-3.8-1.7-5L36.6,46.8z"/>
	<path class="st3" d="M29.5,66.8c-5.8-1.4-9.3-7.2-7.9-13c1.3-5.1,6-8.4,11-8.2l-1.4,5.9c-1.9,0.4-3.4,1.8-3.9,3.7   c-0.6,2.6,0.9,5.3,3.5,6L29.5,66.8z"/>
	<path class="st5" d="M76.4,73.5h12c1.2,0,2.1,0.9,2.1,2.1v14.5c0,1.2-0.9,2.1-2.1,2.1h-12c-1.2,0-2.1-0.9-2.1-2.1V75.6   C74.3,74.4,75.2,73.5,76.4,73.5L76.4,73.5z"/>
	<path class="st4" d="M75.3,73.5h6c0.6,0,1.1,0.5,1.1,1.1v16.7c0,0.6-0.5,1.1-1.1,1.1h-6c-0.6,0-1.1-0.5-1.1-1.1V74.5   C74.3,73.9,74.7,73.5,75.3,73.5L75.3,73.5z"/>
	<path class="st6" d="M99.4,108.1l7-4.5l-0.5,3.1l12.9-2.2l-15.1,6.9c0,0-0.1-3.1-0.2-3.1C103.2,108.1,99.4,108.1,99.4,108.1   L99.4,108.1z"/>
	<path class="st2" d="M50.4,77l69.7,9c3.3,0.4,5.6,3.4,5.2,6.6l-4.1,32.6c-0.5,3.3-3.4,5.6-6.7,5.2l-69.7-9   c-3.3-0.4-5.6-3.4-5.2-6.6l4.1-32.6C44.1,78.9,47.1,76.7,50.4,77L50.4,77z"/>
	<path class="st3" d="M50.4,77l34.8,4.5l-5.7,44.4l-34.8-4.5c-3.3-0.4-5.6-3.4-5.2-6.6l4.1-32.6C44.1,78.9,47.1,76.7,50.4,77   L50.4,77z"/>
	<path class="st2" d="M51.9,29h60.9c3.5,0,6.4,2.8,6.4,6.4v35.4c0,3.5-2.8,6.5-6.4,6.5H51.9c-3.5,0-6.4-3-6.4-6.5V35.4   C45.6,31.9,48.4,29,51.9,29L51.9,29z"/>
	<path class="st3" d="M51.8,29h30.6v48.3H51.8c-3.4,0-6.3-3-6.3-6.5V35.4C45.6,31.9,48.4,29,51.8,29L51.8,29z"/>
	<path class="st1" d="M69.8,46.9c1.7,0,2.8,1.2,2.8,2.8c0,1.5-1.2,2.8-2.8,2.8c-1.5,0-2.7-1.3-2.7-2.8   C67.1,48.1,68.2,46.9,69.8,46.9L69.8,46.9z"/>
	<path class="st1" d="M94.9,46.9c1.7,0,2.8,1.2,2.8,2.8c0,1.5-1.2,2.8-2.8,2.8c-1.5,0-2.7-1.3-2.7-2.8   C92.2,48.1,93.4,46.9,94.9,46.9L94.9,46.9z"/>
	<path class="st7" d="M48.9,58.7c4.5,0,8,3.5,8,7.9c0,4.4-3.5,7.9-8,7.9c-4.4,0-7.9-3.5-7.9-7.9C41,62.2,44.5,58.7,48.9,58.7   L48.9,58.7z"/>
	<path class="st7" d="M116,58.7c4.4,0,7.9,3.5,7.9,7.9c0,4.4-3.5,7.9-7.9,7.9c-4.5,0-8-3.5-8-7.9C107.9,62.2,111.5,58.7,116,58.7   L116,58.7z"/>
	<path class="st1" d="M82.4,57c9,0,16.4,6.3,18.3,14.6H64.1C66,63.3,73.4,57,82.4,57L82.4,57z"/>
	<path class="st8" d="M73.3,59.4c1.9-1.1,3.9-1.8,6.1-2.1c0.2,0.4,0.5,0.8,0.5,1.4v5.2c0,1.3-1.1,2.4-2.4,2.4h-1.9   c-1.3,0-2.4-1.1-2.4-2.4V59.4z"/>
	<path class="st8" d="M87.3,59.6c1.9,1.2,3.5,2.6,4.8,4.3L90.4,68c-0.6,1.2-1.9,1.8-3.1,1.3l-1.8-0.7c-1.2-0.5-1.8-1.9-1.3-3.1   l2-4.8C86.5,60.2,86.9,59.9,87.3,59.6L87.3,59.6z"/>
	<polygon class="st9" points="80.5,19.8 82.3,19.8 84.1,19.8 85.8,29 82.3,29 78.8,29  "/>
	<polygon class="st5" points="80.5,19.8 82.3,19.8 82.4,19.8 82.4,29 82.3,29 78.8,29  "/>
	<polygon class="st9" points="74.7,12.7 75.3,12 75.9,11.4 83.1,17.4 81.8,18.5 80.5,19.8  "/>
	<polygon class="st5" points="74.7,12.7 75.3,12 81.8,18.5 80.5,19.8  "/>
	<path class="st6" d="M84.7,18.5l4.5-3.9L89,17l9-2.8l-10.2,6.3c0,0-0.2-2.1-0.4-2.1C87.4,18.2,84.7,18.5,84.7,18.5L84.7,18.5z"/>
	<polygon class="st6" points="77.7,19.5 73.4,17.2 74.3,19.5 65.3,19.7 76.4,22.1 75.7,19.7  "/>
	<path class="st6" d="M83.7,9c0,0.2-0.1,2.4-1.7,2.7c-0.9,0.2-1.3,0.4-1.5,0.4c0.2,0,0.6,0,1.5,0.2c1.5,0.5,1.7,2.6,1.7,2.7   c0-0.1,0-2.2,1.5-2.7c0.9-0.2,1.4-0.2,1.5-0.2c-0.1,0-0.6-0.1-1.5-0.4C83.7,11.3,83.7,9.2,83.7,9L83.7,9z"/>
	<path class="st1" d="M64,99.9l37.2,4.7c1.1,0.1,1.9,1.2,1.8,2.4l-1.4,11.2c-0.2,1.2-1.2,1.9-2.4,1.8l-37.1-4.7   c-1.2-0.1-2-1.2-1.8-2.4l1.4-11.2C61.9,100.5,62.9,99.8,64,99.9L64,99.9z"/>
	<path class="st5" d="M66.7,101.7l3.1,0.4c0.2,0.1,0.5,0.4,0.5,0.7l-1.4,11.3c-0.1,0.4-0.4,0.6-0.7,0.5l-3-0.4   c-0.4,0-0.6-0.4-0.5-0.6l1.4-11.5C66.1,101.8,66.5,101.7,66.7,101.7L66.7,101.7z"/>
	<path class="st5" d="M76.2,102.9l3.1,0.5c0.2,0,0.5,0.2,0.5,0.6l-1.4,11.3c-0.1,0.4-0.4,0.6-0.7,0.5l-3-0.4c-0.4,0-0.6-0.2-0.5-0.6   l1.4-11.5C75.6,103.1,75.9,102.9,76.2,102.9L76.2,102.9z"/>
	<path class="st5" d="M85.6,104.1l3.1,0.5c0.2,0,0.5,0.2,0.5,0.6l-1.4,11.5c-0.1,0.2-0.4,0.5-0.7,0.5l-3-0.5c-0.4,0-0.6-0.2-0.6-0.6   l1.5-11.5C85,104.3,85.4,104.1,85.6,104.1L85.6,104.1z"/>
	<path class="st5" d="M95.1,105.4l3.1,0.4c0.2,0,0.5,0.4,0.5,0.6l-1.5,11.5c0,0.2-0.2,0.5-0.6,0.5l-3.1-0.4   c-0.2-0.1-0.5-0.4-0.5-0.7l1.5-11.3C94.5,105.5,94.7,105.2,95.1,105.4L95.1,105.4z"/>
	<path class="st4" d="M66.7,101.7l1.5,0.2l-1.7,12.5l-1.4-0.2c-0.4,0-0.6-0.4-0.5-0.6l1.4-11.5C66.1,101.8,66.5,101.7,66.7,101.7   L66.7,101.7z"/>
	<path class="st4" d="M76.2,102.9l1.5,0.2L76,115.6l-1.4-0.2c-0.4,0-0.6-0.2-0.5-0.6l1.4-11.5C75.6,103.1,75.9,102.9,76.2,102.9   L76.2,102.9z"/>
	<path class="st4" d="M85.6,104.1l1.5,0.2l-1.7,12.5l-1.4-0.2c-0.4,0-0.6-0.2-0.6-0.6l1.5-11.5C85,104.3,85.4,104.1,85.6,104.1   L85.6,104.1z"/>
	<path class="st4" d="M95.1,105.4l1.5,0.1L94.9,118l-1.5-0.1c-0.2-0.1-0.5-0.4-0.5-0.7l1.5-11.3C94.5,105.5,94.7,105.2,95.1,105.4   L95.1,105.4z"/>
	<path class="st6" d="M103,94.3c0,0.2-0.1,2.8-2,3.3c-1.1,0.2-1.7,0.4-1.9,0.4c0.2,0.1,0.8,0.1,1.9,0.5c1.9,0.5,2,3.1,2,3.3   c0-0.2,0.1-2.8,1.9-3.3c1.2-0.4,1.8-0.4,2-0.5c-0.2,0-0.8-0.1-2-0.4C103.1,97.1,103,94.5,103,94.3L103,94.3z"/>
	<path class="st6" d="M102.1,112.6c0,0.2-0.1,3-1.9,3.4c-1.2,0.2-1.8,0.4-2,0.4c0.2,0,0.8,0.1,2,0.4c1.8,0.5,1.9,3.1,1.9,3.3   c0-0.2,0.1-2.8,2-3.3c1.1-0.2,1.7-0.4,1.9-0.4c-0.2,0-0.8-0.1-1.9-0.4C102.3,115.5,102.1,112.8,102.1,112.6L102.1,112.6z"/>
	<path class="st6" d="M93,101.6c0,0.2,0,1.9-1.2,2.1c-0.7,0.1-1.1,0.2-1.2,0.2c0.1,0,0.5,0.1,1.2,0.2c1.2,0.2,1.2,1.9,1.2,2.1   c0-0.2,0-1.9,1.2-2.1c0.7-0.1,1.1-0.2,1.2-0.2c-0.1,0-0.5-0.1-1.2-0.2C93,103.5,93,101.8,93,101.6L93,101.6z"/>
	<path class="st4" d="M94.8,144.5c4.4-2.6,10-1.1,12.5,3.3c2.6,4.4,1.1,9.9-3.3,12.5c-4.4,2.5-9.9,0.9-12.5-3.4   C89,152.5,90.4,146.9,94.8,144.5L94.8,144.5z"/>
	<path class="st5" d="M94.8,144.5c4.4-2.6,10-1.1,12.5,3.3l-15.8,9.1C89,152.5,90.4,146.9,94.8,144.5L94.8,144.5z"/>
	<path class="st2" d="M93.8,175.9h19.5c3.9,0,7,3.2,7,7v7.1H93.8V175.9z"/>
	<rect x="93.8" y="182.8" class="st3" width="26.5" height="7.1"/>
	<path class="st6" d="M101.3,107.2l4.3-3.5l-0.1,2.1l8.4-2.6l-9.6,5.8c0,0-0.2-1.9-0.4-2C103.8,107,101.3,107.2,101.3,107.2   L101.3,107.2z"/>
	<path class="st6" d="M51.7,145.4l-2.6-4.8l-0.7,2l-7-5.6l6.9,9c0,0,0.9-1.8,1.1-1.8C49.5,144.2,51.7,145.4,51.7,145.4L51.7,145.4z"/>
	<polygon class="st6" points="53.7,159.3 49.5,157 50.3,159.2 41.3,159.5 52.5,161.9 51.8,159.5  "/>
	<path class="st6" d="M45.8,147.3c0,0.2-0.1,2.8-2,3.3c-1.1,0.2-1.7,0.4-1.9,0.4c0.2,0.1,0.8,0.1,1.9,0.5c1.9,0.5,2,3.1,2,3.3   c0-0.2,0.1-2.8,2-3.3c1.1-0.4,1.7-0.4,1.9-0.5c-0.2,0-0.8-0.1-1.9-0.4C45.9,150.1,45.8,147.5,45.8,147.3L45.8,147.3z"/>
	<path class="st6" d="M110.6,136.3c0,0.2-0.1,2.8-2,3.3c-1.1,0.2-1.7,0.4-1.9,0.4c0.2,0.1,0.8,0.1,1.9,0.5c1.9,0.5,2,3.1,2,3.3   c0-0.2,0-2.8,1.9-3.3c1.2-0.4,1.7-0.4,2-0.5c-0.4,0-0.8-0.1-2-0.4C110.6,139.1,110.6,136.5,110.6,136.3L110.6,136.3z"/>
</g>
</svg>